<svg width="865" height="195" viewBox="0 0 865 195" fill="none" xmlns="http://www.w3.org/2000/svg">
<g clip-path="url(#clip0_2_369)">
<path d="M269.046 95.1222C267.958 76.1016 262.814 71.7557 253.872 72.2624C243.703 72.8276 238.757 78.9274 240.993 118.372C243.288 158.635 248.946 164.949 259.53 164.364C268.888 163.838 272.924 155.984 271.954 138.971C271.776 135.97 271.38 132.579 270.985 128.973C276.682 128.856 281.984 128.564 287.464 128.252C292.945 127.94 298.445 127.648 304.122 127.122C304.32 130.727 304.736 134.313 305.013 139.127C307.149 176.583 292.49 194.863 260.974 196.617C227.006 198.508 209.873 180.559 206.45 120.476C203.225 63.9995 217.193 44.3356 252.566 42.387C286.515 40.4964 299.829 55.8338 301.729 88.8858C302.045 94.4986 302.144 99.7213 302.243 105.139C296.743 105.237 291.045 105.568 285.565 105.86C280.085 106.172 275.001 106.445 269.521 106.951C269.442 102.138 269.224 98.1428 269.046 95.1416V95.1222Z" fill="#008080"/>
<path d="M503.293 24.9639L504.283 42.1915L505.312 60.2181C497.773 60.4325 490.236 60.647 483.333 61.0368C486.022 108.101 489.484 165.377 490.533 176.563C485.625 176.427 477.693 176.875 472.212 177.167C466.732 177.46 459.195 177.888 454.131 178.57C454.131 167.521 451.046 110.225 448.354 62.966C441.231 63.3558 433.735 63.9794 426.019 64.6031C425.959 59.7895 425.523 52.3644 425.186 46.5568C424.833 40.3401 424.456 33.7336 424 29.3486L503.293 24.9639Z" fill="#008080"/>
<path d="M590.587 165.007C589.854 159.219 587.955 147.468 585.283 132.754L570.447 133.573L555.192 134.411C554.186 148.735 553.433 160.622 553.393 167.053L518.83 168.963C524.411 131.078 534.895 36.0727 536.894 17.2667L592.19 14.207C596.741 33.0522 617.927 125.504 628.412 162.883L590.587 164.988V165.007ZM580.536 106.893C577.391 90.9908 574.206 74.5037 571.14 60.1994C568.765 50.884 566.766 40.945 565.343 33.598L564.117 33.6564C563.521 41.1204 562.475 51.2348 561.189 60.9399C559.983 75.4781 558.477 92.0236 557.131 107.985C561.622 107.946 565.68 107.712 568.942 107.536L580.536 106.893Z" fill="#008080"/>
<path d="M632.113 132.169C637.553 124.023 653.359 89.0029 665.329 66.4354C669.364 58.3869 673.579 50.1043 677.28 43.6731L677.02 42.6791C670.947 43.6147 664.46 43.9851 657.533 44.3552C642.281 45.1932 616.581 46.7718 609.678 47.3563C606.532 36.131 603.761 24.9644 601.468 13.8755L713.542 7.4834C713.858 13.096 713.938 18.1045 714.235 23.113C714.531 28.1215 714.987 36.3261 715.461 41.1202C709.644 50.0849 697.873 79.6681 685.925 102.43C681.155 111.726 677.536 119.775 673.835 126.596L674.055 126.791C680.128 126.05 686.222 125.719 691.523 125.426C705.352 124.667 732.968 122.893 739.855 122.113C739.992 128.135 740.704 135.638 740.961 140.237C741.241 145.051 741.437 150.956 741.991 157.153L640.065 161.987L632.093 132.13L632.113 132.169Z" fill="#008080"/>
<path d="M801.107 2.6709L802.096 19.8985L803.302 35.8985C795.763 36.1129 788.07 38.3539 781.144 38.7437C783.836 85.808 787.297 143.084 788.347 154.27C783.439 154.134 775.507 154.582 770.026 154.874C764.546 155.186 757.009 155.595 751.945 156.278C751.945 145.228 748.857 87.932 746.168 40.673C739.045 41.0627 731.249 39.9909 723.533 40.6342C723.476 35.8204 723.336 30.0909 723 24.2834C722.643 18.0666 722.267 11.4601 721.814 7.07524L801.107 2.69039V2.6709Z" fill="#008080"/>
<path d="M858.481 36.2091C852.447 36.4236 845.564 36.7355 835.472 37.3007C825.701 37.8461 818.994 38.275 812.367 38.7623L811.811 28.9011C819.014 28.6867 824.058 28.5307 831.614 28.1021C835.376 27.8877 839.983 27.8877 844.298 27.8293L844.338 27.5759C840.063 27.1472 835.712 26.6015 832.96 26.1338L811.398 22.2166L811.158 17.9682L832.447 11.6345C835.236 10.816 839.43 9.78312 843.328 8.90613L843.248 8.73074C838.837 9.10103 834.663 9.56875 830.548 9.86108C822.932 10.2898 817.885 10.6796 810.765 11.2058L810.268 2.4945C816.915 2.24115 823.622 1.92934 833.397 1.40316C843.485 0.837995 850.351 0.409254 856.385 0L857.118 12.9597C853.12 14.09 845.701 16.0778 838.541 18.241C836.402 18.7867 833.297 19.3908 830.428 19.956V20.1899C833.417 20.5017 836.462 20.7745 838.638 21.0668C845.98 22.2946 853.596 23.6393 857.751 24.2629L858.424 36.1897L858.481 36.2091Z" fill="#2F303D"/>
<path d="M864.212 107.209C858.179 107.424 851.295 107.736 841.204 108.301C831.432 108.846 824.726 109.275 818.099 109.762L817.543 99.9011C824.745 99.6867 829.79 99.5307 837.346 99.1021C841.107 98.8877 845.715 98.8877 850.029 98.8293L850.069 98.5759C845.795 98.1472 841.444 97.6015 838.692 97.1338L817.129 93.2166L816.89 88.9682L838.179 82.6345C840.967 81.816 845.162 80.7831 849.06 79.9061L848.98 79.7307C844.569 80.101 840.394 80.5688 836.28 80.8611C828.663 81.2898 823.616 81.6796 816.496 82.2058L816 73.4945C822.647 73.2412 829.353 72.9293 839.128 72.4032C849.217 71.838 856.083 71.4093 862.117 71L862.849 83.9597C858.852 85.09 851.432 87.0778 844.272 89.241C842.134 89.7867 839.028 90.3908 836.16 90.956V91.1899C839.148 91.5017 842.193 91.7745 844.369 92.0668C851.712 93.2946 859.328 94.6393 863.482 95.2629L864.155 107.19L864.212 107.209Z" fill="#2F303D"/>
<path d="M860.14 65.4025C859.031 65.4025 857.052 65.5194 855.53 65.5975C853.867 65.695 851.652 65.8119 850.485 65.9289C850.266 61.0178 850.049 56.1652 849.832 52.3063L841.107 52.7937C841.364 57.4515 841.64 62.0506 841.977 65.9873C840.02 66.1042 835.45 66.2796 833.254 66.4743C833.154 62.5964 832.957 57.9191 832.681 53.2613L823.519 53.768C823.736 57.7047 824.092 62.7327 824.429 67.3905C823.143 67.3905 820.927 67.5268 819.068 67.6243C817.466 67.7216 815.31 67.8388 814.024 67.9557L812.658 44.1603C818.811 44.0043 825.894 43.6148 835.726 43.0691C845.558 42.5233 852.997 42.1141 858.775 41.6074L860.14 65.4025Z" fill="#2F303D"/>
<path d="M864.482 152.795C863.373 152.795 861.394 152.912 859.872 152.99C858.209 153.088 855.994 153.205 854.827 153.321C854.608 148.41 854.391 143.558 854.174 139.699L845.449 140.186C845.706 144.844 845.982 149.443 846.319 153.38C844.362 153.497 839.792 153.672 837.596 153.867C837.496 149.989 837.299 145.312 837.023 140.654L827.861 141.161C828.078 145.097 828.434 150.125 828.771 154.783C827.485 154.783 825.269 154.919 823.41 155.017C821.808 155.114 819.652 155.231 818.366 155.348L817 131.553C823.153 131.397 830.236 131.007 840.068 130.462C849.9 129.916 857.339 129.507 863.117 129L864.482 152.795Z" fill="#2F303D"/>
<path d="M817 115.553C823.273 115.319 830.276 114.929 840.068 114.403C849.9 113.857 856.903 113.468 863.117 113L863.71 123.543C857.556 123.758 850.553 124.147 840.721 124.693C830.949 125.239 823.943 125.628 817.613 126.096L817.02 115.553H817Z" fill="#2F303D"/>
<path d="M378.578 112.507C378.123 107.264 376.777 102.801 373.79 98.8646C368.785 92.2972 361.959 88.458 353.314 87.2692C350.069 86.821 347.814 88.6918 348.012 91.7126C348.902 106.426 349.872 121.159 350.663 135.873C350.821 138.757 353.413 140.647 356.756 139.751C361.742 138.426 366.035 136.165 369.754 132.813C376.144 127.064 378.756 120.049 378.598 112.507H378.578Z" fill="#008080"/>
<path d="M414.395 107.77C411.111 50.2796 390.437 34.5525 358.308 36.3455C326.18 38.1188 308.038 56.0091 311.322 113.48C314.646 171.769 333.183 192.836 367.152 190.946C401.1 189.056 417.739 166.04 414.415 107.751L414.395 107.77ZM364.066 146.649C346.339 147.78 330.73 134.878 328.91 117.008C326.892 97.188 342.046 81.5777 360.485 80.6618C377.38 79.5118 393.86 91.6533 395.68 110.401C397.559 129.694 383.434 145.421 364.085 146.649H364.066Z" fill="#008080"/>
</g>
<defs>
<clipPath id="clip0_2_369">
<rect width="863.989" height="196.75" fill="white" transform="translate(0.485413)"/>
</clipPath>
</defs>
</svg>
